<?xml version="1.0" encoding="UTF-8" standalone="no"?>
<!-- Created with Serif DrawPlus 11, 0, 3, 23 (Feb 25, 14:12:55) (http://www.serif.com) -->
<svg version="1.1" xmlns="http://www.w3.org/2000/svg" xmlns:xlink="http://www.w3.org/1999/xlink" width="369.759" height="369.759">
	<defs>
		<linearGradient id="grad_dp_001" gradientUnits="userSpaceOnUse" x1="1166.21" y1="1402.34" x2="982.507" y2="1090.35">
			<stop offset="0" stop-color="#b5eb13"/>
			<stop offset="1" stop-color="#00eb31"/>
		</linearGradient>
		<radialGradient id="grad_dp_002" gradientUnits="userSpaceOnUse" cx="1078.95" cy="1245.53" r="182.268">
			<stop offset="0" stop-color="white" stop-opacity="0.247059"/>
			<stop offset="0.7386" stop-color="#dedede" stop-opacity="0.247059"/>
			<stop offset="1" stop-color="black" stop-opacity="0.247059"/>
		</radialGradient>
		<radialGradient id="grad_dp_003" gradientUnits="userSpaceOnUse" cx="1076.13" cy="1121.22" r="105.028">
			<stop offset="0" stop-color="white" stop-opacity="0.364706"/>
			<stop offset="1" stop-color="#d6d6d6" stop-opacity="0.364706"/>
		</radialGradient>
	</defs>
	<g id="selection" transform="matrix(1,0,0,1,-891.255,-1060.65)">
		<path id="dp_path001" fill="url(#grad_dp_001)" fill-rule="evenodd" stroke="none" stroke-width="1.33333" d="M 1076.13,1063.99 C 1176.4,1063.99 1257.67,1145.27 1257.67,1245.53 C 1257.67,1345.8 1176.4,1427.07 1076.13,1427.07 C 975.871,1427.07 894.592,1345.8 894.592,1245.53 C 894.592,1145.27 975.871,1063.99 1076.13,1063.99 Z "/>
		<path id="dp_path002" fill="url(#grad_dp_002)" fill-rule="evenodd" stroke="none" stroke-width="1.33333" d="M 1076.13,1063.99 C 1176.4,1063.99 1257.67,1145.27 1257.67,1245.53 C 1257.67,1345.8 1176.4,1427.07 1076.13,1427.07 C 975.871,1427.07 894.592,1345.8 894.592,1245.53 C 894.592,1145.27 975.871,1063.99 1076.13,1063.99 Z "/>
		<path id="dp_path003" fill="none" fill-rule="evenodd" stroke="none" stroke-width="6.66667" d="M 1076.13,1063.99 C 1176.4,1063.99 1257.67,1145.27 1257.67,1245.53 C 1257.67,1345.8 1176.4,1427.07 1076.13,1427.07 C 975.871,1427.07 894.592,1345.8 894.592,1245.53 C 894.592,1145.27 975.871,1063.99 1076.13,1063.99 Z "/>
		<path id="dp_path004" fill="url(#grad_dp_003)" fill-rule="evenodd" stroke="none" stroke-width="1.33333" d="M 1076.13,1063.99 C 1133.91,1063.99 1180.74,1089.62 1180.74,1121.22 C 1180.74,1152.83 1133.91,1178.46 1076.13,1178.46 C 1018.36,1178.46 971.524,1152.83 971.524,1121.22 C 971.524,1089.62 1018.36,1063.99 1076.13,1063.99 Z "/>
	</g>
</svg>